<mxfile host="app.diagrams.net" modified="2023-09-15T14:51:37.207Z" agent="Mozilla/5.0 (Windows NT 10.0; Win64; x64) AppleWebKit/537.36 (KHTML, like Gecko) Chrome/118.0.0.0 Safari/537.36 Edg/118.0.0.0" etag="dtSBPiGoL37S3SIPC_Hd" version="21.7.5" type="github">
  <diagram name="Page-1" id="A8fb3w1H7AYXVCVUZf14">
    <mxGraphModel dx="3067" dy="954" grid="1" gridSize="10" guides="1" tooltips="1" connect="1" arrows="1" fold="1" page="1" pageScale="1" pageWidth="1169" pageHeight="827" math="0" shadow="0">
      <root>
        <mxCell id="0" />
        <mxCell id="1" parent="0" />
        <mxCell id="uBb9eE13xI9o5E1Ve7ly-19" value="" style="endArrow=open;endFill=1;endSize=12;html=1;rounded=0;exitX=0.5;exitY=1;exitDx=0;exitDy=0;entryX=0.5;entryY=0;entryDx=0;entryDy=0;" edge="1" parent="1" source="uBb9eE13xI9o5E1Ve7ly-9" target="uBb9eE13xI9o5E1Ve7ly-12">
          <mxGeometry width="160" relative="1" as="geometry">
            <mxPoint x="40" y="570" as="sourcePoint" />
            <mxPoint x="200" y="570" as="targetPoint" />
          </mxGeometry>
        </mxCell>
        <mxCell id="uBb9eE13xI9o5E1Ve7ly-38" value="" style="endArrow=open;endFill=1;endSize=12;html=1;rounded=0;exitX=0.5;exitY=1;exitDx=0;exitDy=0;entryX=0.5;entryY=0;entryDx=0;entryDy=0;" edge="1" parent="1" source="uBb9eE13xI9o5E1Ve7ly-36" target="uBb9eE13xI9o5E1Ve7ly-12">
          <mxGeometry width="160" relative="1" as="geometry">
            <mxPoint x="-400" y="690" as="sourcePoint" />
            <mxPoint x="-400" y="917" as="targetPoint" />
          </mxGeometry>
        </mxCell>
        <mxCell id="uBb9eE13xI9o5E1Ve7ly-1" value="&lt;b&gt;Aspirateur à main de Carrefour&amp;nbsp;&lt;/b&gt;" style="shape=umlFrame;whiteSpace=wrap;html=1;pointerEvents=0;width=160;height=76;" vertex="1" parent="1">
          <mxGeometry x="-880" y="10" width="2040" height="1270" as="geometry" />
        </mxCell>
        <mxCell id="uBb9eE13xI9o5E1Ve7ly-2" value="&lt;div align=&quot;center&quot;&gt;&lt;b&gt;Système&lt;/b&gt;&lt;br&gt;&lt;/div&gt;&lt;hr&gt;&lt;div&gt;&amp;nbsp;Aspirateur à miettes Carrefour - HRV600012 (HC-1003C-12).&lt;/div&gt;&lt;div&gt;&lt;br&gt;&lt;/div&gt;&lt;div&gt;Id = &quot;1&quot;&lt;br&gt;&lt;/div&gt;" style="verticalAlign=top;align=left;overflow=fill;fontSize=12;fontFamily=Helvetica;html=1;whiteSpace=wrap;" vertex="1" parent="1">
          <mxGeometry x="155" y="160" width="240" height="100" as="geometry" />
        </mxCell>
        <mxCell id="uBb9eE13xI9o5E1Ve7ly-5" value="&lt;p style=&quot;text-align: center; margin: 4px 0px 0px;&quot;&gt;&quot;requirement&quot;&lt;b&gt;&lt;br&gt;&lt;/b&gt;&lt;/p&gt;&lt;p style=&quot;text-align: center; margin: 4px 0px 0px;&quot;&gt;&lt;b&gt;Aspirer en intégralité (partout)&lt;/b&gt;&lt;/p&gt;&lt;hr&gt;&lt;p style=&quot;margin:0px;margin-left:8px;&quot;&gt;Id = &quot;1.1&quot;&lt;/p&gt;&lt;p style=&quot;margin:0px;margin-left:8px;&quot;&gt;Text = &quot;L&#39;aspirateur doit être capable de pouvoir passer dans tous les recoins, avec une grande efficacité.&quot;&lt;/p&gt;" style="verticalAlign=top;align=left;overflow=fill;fontSize=12;fontFamily=Helvetica;html=1;whiteSpace=wrap;" vertex="1" parent="1">
          <mxGeometry x="-420" y="320" width="190" height="160" as="geometry" />
        </mxCell>
        <mxCell id="uBb9eE13xI9o5E1Ve7ly-6" value="&lt;p style=&quot;text-align: center; margin: 4px 0px 0px;&quot;&gt;&quot;requirement&quot;&lt;b&gt;&lt;br&gt;&lt;/b&gt;&lt;/p&gt;&lt;p style=&quot;text-align: center; margin: 4px 0px 0px;&quot;&gt;&lt;b&gt;Être maniable&lt;/b&gt;&lt;br&gt;&lt;/p&gt;&lt;hr&gt;&lt;p style=&quot;margin:0px;margin-left:8px;&quot;&gt;Id = &quot;1.1.2&quot;&lt;/p&gt;&lt;p style=&quot;margin:0px;margin-left:8px;&quot;&gt;Text = &quot;L&#39;aspirateur doit être capable d&#39;être utilisé n&#39;importe où.&quot;&lt;/p&gt;" style="verticalAlign=top;align=left;overflow=fill;fontSize=12;fontFamily=Helvetica;html=1;whiteSpace=wrap;" vertex="1" parent="1">
          <mxGeometry x="-170" y="545" width="230" height="155" as="geometry" />
        </mxCell>
        <mxCell id="uBb9eE13xI9o5E1Ve7ly-7" value="&lt;p style=&quot;margin:0px;margin-top:4px;text-align:center;&quot;&gt;&quot;block&quot;&lt;/p&gt;&lt;p style=&quot;margin:0px;margin-top:4px;text-align:center;&quot;&gt;&lt;b&gt;Batterie&lt;/b&gt;&lt;/p&gt;&lt;hr size=&quot;1&quot;&gt;&lt;div style=&quot;height:2px;&quot;&gt;Temps d&#39;utilisation sur batterie de 12 minutes.&lt;/div&gt;" style="verticalAlign=top;align=left;overflow=fill;fontSize=12;fontFamily=Helvetica;html=1;whiteSpace=wrap;" vertex="1" parent="1">
          <mxGeometry x="-330" y="1030" width="140" height="90" as="geometry" />
        </mxCell>
        <mxCell id="uBb9eE13xI9o5E1Ve7ly-8" value="&lt;p style=&quot;text-align: center; margin: 4px 0px 0px;&quot;&gt;&quot;requirement&quot;&lt;/p&gt;&lt;p style=&quot;text-align: center; margin: 4px 0px 0px;&quot;&gt;&lt;b&gt;Être léger&lt;/b&gt;&lt;br&gt;&lt;/p&gt;&lt;hr&gt;&lt;p style=&quot;margin:0px;margin-left:8px;&quot;&gt;Id = &quot;1.1.2.2&quot;&lt;/p&gt;&lt;p style=&quot;margin:0px;margin-left:8px;&quot;&gt;Text = &quot;L&#39;aspirateur doit avoir un poids total inférieur à 2kg.&quot;&lt;/p&gt;" style="verticalAlign=top;align=left;overflow=fill;fontSize=12;fontFamily=Helvetica;html=1;whiteSpace=wrap;" vertex="1" parent="1">
          <mxGeometry x="-162.5" y="890" width="220" height="110" as="geometry" />
        </mxCell>
        <mxCell id="uBb9eE13xI9o5E1Ve7ly-9" value="&lt;p style=&quot;text-align: center; margin: 4px 0px 0px;&quot;&gt;&quot;requirement&quot;&lt;b&gt;&lt;br&gt;&lt;/b&gt;&lt;/p&gt;&lt;p style=&quot;text-align: center; margin: 4px 0px 0px;&quot;&gt;&lt;b&gt;Être polyvalent&lt;/b&gt;&lt;br&gt;&lt;/p&gt;&lt;hr&gt;&lt;p style=&quot;margin:0px;margin-left:8px;&quot;&gt;Id = &quot;1.1.1&quot;&lt;/p&gt;&lt;p style=&quot;margin:0px;margin-left:8px;&quot;&gt;Text = &quot;L&#39;aspirateur doit être capable d&#39;aspirer presque toute matière minime solide décomposée. Cela doit être de la poussière, des miettes, des poils d&#39;animaux, de la nourriture, etc...&quot;&lt;/p&gt;" style="verticalAlign=top;align=left;overflow=fill;fontSize=12;fontFamily=Helvetica;html=1;whiteSpace=wrap;" vertex="1" parent="1">
          <mxGeometry x="-440" y="545" width="230" height="155" as="geometry" />
        </mxCell>
        <mxCell id="uBb9eE13xI9o5E1Ve7ly-10" value="&lt;p style=&quot;text-align: center; margin: 4px 0px 0px;&quot;&gt;&quot;requirement&quot;&lt;b&gt;&lt;br&gt;&lt;/b&gt;&lt;/p&gt;&lt;p style=&quot;text-align: center; margin: 4px 0px 0px;&quot;&gt;&lt;b&gt;Se déplacer n&#39;importe où&lt;/b&gt;&lt;br&gt;&lt;/p&gt;&lt;hr&gt;&lt;p style=&quot;margin:0px;margin-left:8px;&quot;&gt;Id = &quot;1.1.2.1&quot;&lt;/p&gt;&lt;p style=&quot;margin:0px;margin-left:8px;&quot;&gt;Text = &quot;L&#39;aspirateur doit être capable d&#39;être emmené et utilisé n&#39;importe où. Il doit donc être équipé d&#39;une batterie.&quot;&lt;/p&gt;" style="verticalAlign=top;align=left;overflow=fill;fontSize=12;fontFamily=Helvetica;html=1;whiteSpace=wrap;" vertex="1" parent="1">
          <mxGeometry x="-402.5" y="890" width="230" height="110" as="geometry" />
        </mxCell>
        <mxCell id="uBb9eE13xI9o5E1Ve7ly-11" value="&lt;p style=&quot;text-align: center; margin: 4px 0px 0px;&quot;&gt;&quot;requirement&quot;&lt;/p&gt;&lt;p style=&quot;text-align: center; margin: 4px 0px 0px;&quot;&gt;&lt;b&gt;Être équipé d&#39;une poignée&lt;/b&gt;&lt;br&gt;&lt;/p&gt;&lt;hr&gt;&lt;p style=&quot;margin:0px;margin-left:8px;&quot;&gt;Id = &quot;1.1.2.3&quot;&lt;/p&gt;&lt;p style=&quot;margin:0px;margin-left:8px;&quot;&gt;Text = &quot;L&#39;aspirateur doit être équipé d&#39;une poignée de 14cm pour pouvoir être tenu et amené n&#39;importe où.&quot;&lt;/p&gt;" style="verticalAlign=top;align=left;overflow=fill;fontSize=12;fontFamily=Helvetica;html=1;whiteSpace=wrap;" vertex="1" parent="1">
          <mxGeometry x="72.5" y="890" width="220" height="110" as="geometry" />
        </mxCell>
        <mxCell id="uBb9eE13xI9o5E1Ve7ly-12" value="&lt;p style=&quot;margin:0px;margin-top:4px;text-align:center;&quot;&gt;&quot;block&quot;&lt;/p&gt;&lt;p style=&quot;margin:0px;margin-top:4px;text-align:center;&quot;&gt;&lt;b&gt;Moteur&lt;/b&gt;&lt;/p&gt;&lt;hr size=&quot;1&quot;&gt;&lt;div style=&quot;height:2px;&quot;&gt;Capacité de 45W.&lt;/div&gt;" style="verticalAlign=top;align=left;overflow=fill;fontSize=12;fontFamily=Helvetica;html=1;whiteSpace=wrap;" vertex="1" parent="1">
          <mxGeometry x="-490" y="1030" width="140" height="90" as="geometry" />
        </mxCell>
        <mxCell id="uBb9eE13xI9o5E1Ve7ly-13" value="" style="endArrow=open;startArrow=circlePlus;endFill=0;startFill=0;endSize=8;html=1;rounded=0;exitX=0.5;exitY=1;exitDx=0;exitDy=0;entryX=0.5;entryY=0;entryDx=0;entryDy=0;" edge="1" parent="1" source="uBb9eE13xI9o5E1Ve7ly-6" target="uBb9eE13xI9o5E1Ve7ly-10">
          <mxGeometry width="160" relative="1" as="geometry">
            <mxPoint x="380" y="650" as="sourcePoint" />
            <mxPoint x="-185" y="740" as="targetPoint" />
          </mxGeometry>
        </mxCell>
        <mxCell id="uBb9eE13xI9o5E1Ve7ly-14" value="" style="endArrow=open;startArrow=circlePlus;endFill=0;startFill=0;endSize=8;html=1;rounded=0;entryX=0.5;entryY=0;entryDx=0;entryDy=0;exitX=0.5;exitY=1;exitDx=0;exitDy=0;" edge="1" parent="1" source="uBb9eE13xI9o5E1Ve7ly-6" target="uBb9eE13xI9o5E1Ve7ly-8">
          <mxGeometry width="160" relative="1" as="geometry">
            <mxPoint x="380" y="650" as="sourcePoint" />
            <mxPoint x="50" y="740" as="targetPoint" />
          </mxGeometry>
        </mxCell>
        <mxCell id="uBb9eE13xI9o5E1Ve7ly-15" value="" style="endArrow=open;startArrow=circlePlus;endFill=0;startFill=0;endSize=8;html=1;rounded=0;entryX=0.5;entryY=0;entryDx=0;entryDy=0;exitX=0.5;exitY=1;exitDx=0;exitDy=0;" edge="1" parent="1" source="uBb9eE13xI9o5E1Ve7ly-6" target="uBb9eE13xI9o5E1Ve7ly-11">
          <mxGeometry width="160" relative="1" as="geometry">
            <mxPoint x="380" y="650" as="sourcePoint" />
            <mxPoint x="175" y="740" as="targetPoint" />
          </mxGeometry>
        </mxCell>
        <mxCell id="uBb9eE13xI9o5E1Ve7ly-16" value="" style="endArrow=open;startArrow=circlePlus;endFill=0;startFill=0;endSize=8;html=1;rounded=0;entryX=0.5;entryY=0;entryDx=0;entryDy=0;exitX=0.5;exitY=1;exitDx=0;exitDy=0;" edge="1" parent="1" source="uBb9eE13xI9o5E1Ve7ly-5" target="uBb9eE13xI9o5E1Ve7ly-9">
          <mxGeometry width="160" relative="1" as="geometry">
            <mxPoint x="-75" y="390" as="sourcePoint" />
            <mxPoint x="-150" y="490" as="targetPoint" />
          </mxGeometry>
        </mxCell>
        <mxCell id="uBb9eE13xI9o5E1Ve7ly-17" value="" style="endArrow=open;startArrow=circlePlus;endFill=0;startFill=0;endSize=8;html=1;rounded=0;entryX=0.5;entryY=0;entryDx=0;entryDy=0;exitX=0.5;exitY=1;exitDx=0;exitDy=0;" edge="1" parent="1" target="uBb9eE13xI9o5E1Ve7ly-6" source="uBb9eE13xI9o5E1Ve7ly-5">
          <mxGeometry width="160" relative="1" as="geometry">
            <mxPoint x="120" y="500" as="sourcePoint" />
            <mxPoint x="5" y="530" as="targetPoint" />
          </mxGeometry>
        </mxCell>
        <mxCell id="uBb9eE13xI9o5E1Ve7ly-18" value="" style="endArrow=open;startArrow=circlePlus;endFill=0;startFill=0;endSize=8;html=1;rounded=0;entryX=0.5;entryY=0;entryDx=0;entryDy=0;" edge="1" parent="1" target="uBb9eE13xI9o5E1Ve7ly-5">
          <mxGeometry width="160" relative="1" as="geometry">
            <mxPoint x="270" y="260" as="sourcePoint" />
            <mxPoint x="210" y="330" as="targetPoint" />
          </mxGeometry>
        </mxCell>
        <mxCell id="uBb9eE13xI9o5E1Ve7ly-20" value="" style="endArrow=open;endFill=1;endSize=12;html=1;rounded=0;exitX=0.5;exitY=1;exitDx=0;exitDy=0;entryX=0.5;entryY=0;entryDx=0;entryDy=0;" edge="1" parent="1" source="uBb9eE13xI9o5E1Ve7ly-10" target="uBb9eE13xI9o5E1Ve7ly-7">
          <mxGeometry width="160" relative="1" as="geometry">
            <mxPoint x="-75" y="673" as="sourcePoint" />
            <mxPoint x="-75" y="880" as="targetPoint" />
          </mxGeometry>
        </mxCell>
        <mxCell id="uBb9eE13xI9o5E1Ve7ly-21" value="&lt;p style=&quot;text-align: center; margin: 4px 0px 0px;&quot;&gt;&quot;requirement&quot;&lt;b&gt;&lt;br&gt;&lt;/b&gt;&lt;/p&gt;&lt;p style=&quot;text-align: center; margin: 4px 0px 0px;&quot;&gt;&lt;b&gt;Recharger la batterie&lt;/b&gt;&lt;/p&gt;&lt;hr&gt;&lt;p style=&quot;margin:0px;margin-left:8px;&quot;&gt;Id = &quot;1.2&quot;&lt;/p&gt;&lt;p style=&quot;margin:0px;margin-left:8px;&quot;&gt;Text = &quot;L&#39;aspirateur doit être en mesure de fournir une interface permettant le rechargement de la batterie.&quot;&lt;/p&gt;" style="verticalAlign=top;align=left;overflow=fill;fontSize=12;fontFamily=Helvetica;html=1;whiteSpace=wrap;" vertex="1" parent="1">
          <mxGeometry x="92.5" y="320" width="180" height="160" as="geometry" />
        </mxCell>
        <mxCell id="uBb9eE13xI9o5E1Ve7ly-22" value="" style="endArrow=open;startArrow=circlePlus;endFill=0;startFill=0;endSize=8;html=1;rounded=0;entryX=0.5;entryY=0;entryDx=0;entryDy=0;exitX=0.5;exitY=1;exitDx=0;exitDy=0;" edge="1" parent="1" source="uBb9eE13xI9o5E1Ve7ly-2" target="uBb9eE13xI9o5E1Ve7ly-21">
          <mxGeometry width="160" relative="1" as="geometry">
            <mxPoint x="260" y="320" as="sourcePoint" />
            <mxPoint x="140" y="370" as="targetPoint" />
          </mxGeometry>
        </mxCell>
        <mxCell id="uBb9eE13xI9o5E1Ve7ly-23" value="&lt;p style=&quot;text-align: center; margin: 4px 0px 0px;&quot;&gt;&quot;requirement&quot;&lt;b&gt;&lt;br&gt;&lt;/b&gt;&lt;/p&gt;&lt;p style=&quot;text-align: center; margin: 4px 0px 0px;&quot;&gt;&lt;b&gt;Vider le réservoir&lt;/b&gt;&lt;/p&gt;&lt;hr&gt;&lt;p style=&quot;margin:0px;margin-left:8px;&quot;&gt;Id = &quot;1.3&quot;&lt;/p&gt;&lt;p style=&quot;margin:0px;margin-left:8px;&quot;&gt;Text = &quot;L&#39;utilisateur doit être capable d&#39;enlever et vider le réservoir facilement et efficacement.&quot;&lt;/p&gt;" style="verticalAlign=top;align=left;overflow=fill;fontSize=12;fontFamily=Helvetica;html=1;whiteSpace=wrap;" vertex="1" parent="1">
          <mxGeometry x="390" y="320" width="180" height="160" as="geometry" />
        </mxCell>
        <mxCell id="uBb9eE13xI9o5E1Ve7ly-24" value="&lt;p style=&quot;text-align: center; margin: 4px 0px 0px;&quot;&gt;&quot;requirement&quot;&lt;b&gt;&lt;br&gt;&lt;/b&gt;&lt;/p&gt;&lt;p style=&quot;text-align: center; margin: 4px 0px 0px;&quot;&gt;&lt;b&gt;Changer de filtre&lt;/b&gt;&lt;/p&gt;&lt;hr&gt;&lt;p style=&quot;margin:0px;margin-left:8px;&quot;&gt;Id = &quot;1.3&quot;&lt;/p&gt;&lt;p style=&quot;margin:0px;margin-left:8px;&quot;&gt;Text = &quot;L&#39;aspirateur doit être équipé d&#39;un système à bouton poussoir permettant d&#39;enlever et d&#39;insérer facilement son réservoir, contenant le filtre et les déchets.&quot;&lt;/p&gt;" style="verticalAlign=top;align=left;overflow=fill;fontSize=12;fontFamily=Helvetica;html=1;whiteSpace=wrap;" vertex="1" parent="1">
          <mxGeometry x="620" y="320" width="190" height="160" as="geometry" />
        </mxCell>
        <mxCell id="uBb9eE13xI9o5E1Ve7ly-25" value="&lt;p style=&quot;text-align: center; margin: 4px 0px 0px;&quot;&gt;&quot;requirement&quot;&lt;b&gt;&lt;br&gt;&lt;/b&gt;&lt;/p&gt;&lt;p style=&quot;text-align: center; margin: 4px 0px 0px;&quot;&gt;&lt;b&gt;Remplacer les composants&lt;/b&gt;&lt;/p&gt;&lt;hr&gt;&lt;p style=&quot;margin:0px;margin-left:8px;&quot;&gt;Id = &quot;1.2.2&quot;&lt;/p&gt;&lt;p style=&quot;margin:0px;margin-left:8px;&quot;&gt;Text = &quot;Un réparateur, assistant ou même éventuel utilisateur doit être en mesure de démonter et remplacer un composant interne de l&#39;aspirateur.&quot;&lt;/p&gt;" style="verticalAlign=top;align=left;overflow=fill;fontSize=12;fontFamily=Helvetica;html=1;whiteSpace=wrap;" vertex="1" parent="1">
          <mxGeometry x="869" y="320" width="190" height="160" as="geometry" />
        </mxCell>
        <mxCell id="uBb9eE13xI9o5E1Ve7ly-26" value="" style="endArrow=open;startArrow=circlePlus;endFill=0;startFill=0;endSize=8;html=1;rounded=0;entryX=0.5;entryY=0;entryDx=0;entryDy=0;" edge="1" parent="1" target="uBb9eE13xI9o5E1Ve7ly-23">
          <mxGeometry width="160" relative="1" as="geometry">
            <mxPoint x="270" y="260" as="sourcePoint" />
            <mxPoint x="540" y="280" as="targetPoint" />
          </mxGeometry>
        </mxCell>
        <mxCell id="uBb9eE13xI9o5E1Ve7ly-27" value="" style="endArrow=open;startArrow=circlePlus;endFill=0;startFill=0;endSize=8;html=1;rounded=0;entryX=0.5;entryY=0;entryDx=0;entryDy=0;" edge="1" parent="1" target="uBb9eE13xI9o5E1Ve7ly-24">
          <mxGeometry width="160" relative="1" as="geometry">
            <mxPoint x="270" y="260" as="sourcePoint" />
            <mxPoint x="697.5" y="300" as="targetPoint" />
          </mxGeometry>
        </mxCell>
        <mxCell id="uBb9eE13xI9o5E1Ve7ly-28" value="" style="endArrow=open;startArrow=circlePlus;endFill=0;startFill=0;endSize=8;html=1;rounded=0;entryX=0.5;entryY=0;entryDx=0;entryDy=0;exitX=0.5;exitY=1;exitDx=0;exitDy=0;" edge="1" parent="1" source="uBb9eE13xI9o5E1Ve7ly-2" target="uBb9eE13xI9o5E1Ve7ly-25">
          <mxGeometry width="160" relative="1" as="geometry">
            <mxPoint x="275" y="320" as="sourcePoint" />
            <mxPoint x="910" y="240" as="targetPoint" />
          </mxGeometry>
        </mxCell>
        <mxCell id="uBb9eE13xI9o5E1Ve7ly-29" value="&lt;p style=&quot;margin:0px;margin-top:4px;text-align:center;&quot;&gt;&quot;block&quot;&lt;/p&gt;&lt;p style=&quot;margin:0px;margin-top:4px;text-align:center;&quot;&gt;&lt;b&gt;Filtre&lt;/b&gt;&lt;/p&gt;&lt;hr size=&quot;1&quot;&gt;&lt;div style=&quot;height:2px;&quot;&gt;Doit être capable de filtrer 99,9% des particulesde 0.1cm à 1cm..&lt;/div&gt;" style="verticalAlign=top;align=left;overflow=fill;fontSize=12;fontFamily=Helvetica;html=1;whiteSpace=wrap;" vertex="1" parent="1">
          <mxGeometry x="660" y="1027.5" width="140" height="95" as="geometry" />
        </mxCell>
        <mxCell id="uBb9eE13xI9o5E1Ve7ly-30" value="" style="endArrow=open;endFill=1;endSize=12;html=1;rounded=0;entryX=0.5;entryY=0;entryDx=0;entryDy=0;exitX=0.5;exitY=1;exitDx=0;exitDy=0;" edge="1" parent="1" target="uBb9eE13xI9o5E1Ve7ly-29" source="uBb9eE13xI9o5E1Ve7ly-24">
          <mxGeometry width="160" relative="1" as="geometry">
            <mxPoint x="650" y="695" as="sourcePoint" />
            <mxPoint x="680" y="815" as="targetPoint" />
          </mxGeometry>
        </mxCell>
        <mxCell id="uBb9eE13xI9o5E1Ve7ly-31" value="&lt;p style=&quot;text-align: center; margin: 4px 0px 0px;&quot;&gt;&quot;requirement&quot;&lt;b&gt;&lt;br&gt;&lt;/b&gt;&lt;/p&gt;&lt;p style=&quot;text-align: center; margin: 4px 0px 0px;&quot;&gt;&lt;b&gt;Équipé d&#39;aération&lt;/b&gt;&lt;br&gt;&lt;/p&gt;&lt;hr&gt;&lt;p style=&quot;margin:0px;margin-left:8px;&quot;&gt;Id = &quot;1.2.5&quot;&lt;/p&gt;&lt;p style=&quot;margin:0px;margin-left:8px;&quot;&gt;Text = &quot;L&#39;aspirateur doit avoir 10 trous d&#39;aérations de 1,2x1cm afin d&#39;éviter que le moteur surchauffe.&quot;&lt;/p&gt;" style="verticalAlign=top;align=left;overflow=fill;fontSize=12;fontFamily=Helvetica;html=1;whiteSpace=wrap;" vertex="1" parent="1">
          <mxGeometry x="-480" y="730" width="240" height="110" as="geometry" />
        </mxCell>
        <mxCell id="uBb9eE13xI9o5E1Ve7ly-32" value="" style="endArrow=open;startArrow=circlePlus;endFill=0;startFill=0;endSize=8;html=1;rounded=0;entryX=0.5;entryY=0;entryDx=0;entryDy=0;exitX=0.5;exitY=1;exitDx=0;exitDy=0;" edge="1" parent="1" source="uBb9eE13xI9o5E1Ve7ly-9" target="uBb9eE13xI9o5E1Ve7ly-31">
          <mxGeometry width="160" relative="1" as="geometry">
            <mxPoint x="-440" y="520" as="sourcePoint" />
            <mxPoint x="-470" y="740" as="targetPoint" />
          </mxGeometry>
        </mxCell>
        <mxCell id="uBb9eE13xI9o5E1Ve7ly-33" value="&lt;p style=&quot;text-align: center; margin: 4px 0px 0px;&quot;&gt;&quot;requirement&quot;&lt;b&gt;&lt;br&gt;&lt;/b&gt;&lt;/p&gt;&lt;p style=&quot;text-align: center; margin: 4px 0px 0px;&quot;&gt;&lt;b&gt;Entrée pour recharger la batterie&lt;/b&gt;&lt;/p&gt;&lt;hr&gt;&lt;p style=&quot;margin:0px;margin-left:8px;&quot;&gt;Id = &quot;1.2&quot;&lt;/p&gt;&lt;p style=&quot;margin:0px;margin-left:8px;&quot;&gt;Text = &quot;L&#39;aspirateur doit être équipé d&#39;une entrée femelle de 6V circulaire de 0,5 de diamètre à l&#39;arrière de l&#39;aspirateur, afin de pouvoir être rechargée.&quot;&lt;/p&gt;" style="verticalAlign=top;align=left;overflow=fill;fontSize=12;fontFamily=Helvetica;html=1;whiteSpace=wrap;" vertex="1" parent="1">
          <mxGeometry x="85" y="545" width="190" height="155" as="geometry" />
        </mxCell>
        <mxCell id="uBb9eE13xI9o5E1Ve7ly-34" value="" style="endArrow=open;startArrow=circlePlus;endFill=0;startFill=0;endSize=8;html=1;rounded=0;entryX=0.5;entryY=0;entryDx=0;entryDy=0;exitX=0.5;exitY=1;exitDx=0;exitDy=0;" edge="1" parent="1" source="uBb9eE13xI9o5E1Ve7ly-21" target="uBb9eE13xI9o5E1Ve7ly-33">
          <mxGeometry width="160" relative="1" as="geometry">
            <mxPoint x="455" y="590" as="sourcePoint" />
            <mxPoint x="280" y="670" as="targetPoint" />
          </mxGeometry>
        </mxCell>
        <mxCell id="uBb9eE13xI9o5E1Ve7ly-35" value="&lt;p style=&quot;text-align: center; margin: 4px 0px 0px;&quot;&gt;&quot;requirement&quot;&lt;b&gt;&lt;br&gt;&lt;/b&gt;&lt;/p&gt;&lt;p style=&quot;text-align: center; margin: 4px 0px 0px;&quot;&gt;&lt;b&gt;Bouton pour donner accès au réservoir amovible&lt;/b&gt;&lt;b style=&quot;background-color: initial;&quot;&gt;&amp;nbsp;&lt;/b&gt;&lt;/p&gt;&lt;hr&gt;&lt;p style=&quot;margin:0px;margin-left:8px;&quot;&gt;Id = &quot;1.2&quot;&lt;/p&gt;&lt;p style=&quot;margin:0px;margin-left:8px;&quot;&gt;Text = &quot;L&#39;aspirateur doit être équipé d&#39;un bouton poussoir sous forme d&#39;ellipse suivant la paume du pouce de rayon 3x2cm permettant de détacher le résevoir amovible ainsi que le filtre.&quot;&lt;/p&gt;" style="verticalAlign=top;align=left;overflow=fill;fontSize=12;fontFamily=Helvetica;html=1;whiteSpace=wrap;" vertex="1" parent="1">
          <mxGeometry x="520" y="545" width="190" height="185" as="geometry" />
        </mxCell>
        <mxCell id="uBb9eE13xI9o5E1Ve7ly-36" value="&lt;p style=&quot;text-align: center; margin: 4px 0px 0px;&quot;&gt;&quot;requirement&quot;&lt;b&gt;&lt;br&gt;&lt;/b&gt;&lt;/p&gt;&lt;p style=&quot;text-align: center; margin: 4px 0px 0px;&quot;&gt;&lt;b&gt;Bouton pour lancer l&#39;aspiration&lt;/b&gt;&lt;br&gt;&lt;/p&gt;&lt;hr&gt;&lt;p style=&quot;margin:0px;margin-left:8px;&quot;&gt;Id = &quot;1.1.1&quot;&lt;/p&gt;&lt;p style=&quot;margin:0px;margin-left:8px;&quot;&gt;Text = &quot;L&#39;aspirateur doit être équipé d&#39;un bouton poussoir sous forme d&#39;ellipse de la même forme que le pouce, de dimension 4x2cm, permettant d&#39;allumer le moteur et commencer à aspirer des débris.&quot;&lt;/p&gt;" style="verticalAlign=top;align=left;overflow=fill;fontSize=12;fontFamily=Helvetica;html=1;whiteSpace=wrap;" vertex="1" parent="1">
          <mxGeometry x="-690" y="545" width="230" height="155" as="geometry" />
        </mxCell>
        <mxCell id="uBb9eE13xI9o5E1Ve7ly-37" value="" style="endArrow=open;startArrow=circlePlus;endFill=0;startFill=0;endSize=8;html=1;rounded=0;entryX=0.5;entryY=0;entryDx=0;entryDy=0;" edge="1" parent="1" target="uBb9eE13xI9o5E1Ve7ly-36">
          <mxGeometry width="160" relative="1" as="geometry">
            <mxPoint x="-320" y="480" as="sourcePoint" />
            <mxPoint x="-445" y="500" as="targetPoint" />
          </mxGeometry>
        </mxCell>
        <mxCell id="uBb9eE13xI9o5E1Ve7ly-39" value="&lt;p style=&quot;margin:0px;margin-top:4px;text-align:center;&quot;&gt;&quot;block&quot;&lt;/p&gt;&lt;p style=&quot;margin:0px;margin-top:4px;text-align:center;&quot;&gt;&lt;b&gt;Réservoir amovible&lt;/b&gt;&lt;/p&gt;&lt;hr size=&quot;1&quot;&gt;&lt;div style=&quot;height:2px;&quot;&gt;Doit avoir une contenance de 0,3L.&lt;/div&gt;" style="verticalAlign=top;align=left;overflow=fill;fontSize=12;fontFamily=Helvetica;html=1;whiteSpace=wrap;gradientColor=none;strokeColor=default;" vertex="1" parent="1">
          <mxGeometry x="275" y="1030" width="140" height="90" as="geometry" />
        </mxCell>
        <mxCell id="uBb9eE13xI9o5E1Ve7ly-40" value="" style="endArrow=open;endFill=1;endSize=12;html=1;rounded=0;entryX=0.5;entryY=0;entryDx=0;entryDy=0;exitX=0.5;exitY=1;exitDx=0;exitDy=0;" edge="1" parent="1" source="uBb9eE13xI9o5E1Ve7ly-23" target="uBb9eE13xI9o5E1Ve7ly-39">
          <mxGeometry width="160" relative="1" as="geometry">
            <mxPoint x="360" y="545" as="sourcePoint" />
            <mxPoint x="360" y="960" as="targetPoint" />
          </mxGeometry>
        </mxCell>
        <mxCell id="uBb9eE13xI9o5E1Ve7ly-41" value="" style="endArrow=open;startArrow=circlePlus;endFill=0;startFill=0;endSize=8;html=1;rounded=0;entryX=0.5;entryY=0;entryDx=0;entryDy=0;exitX=0.5;exitY=1;exitDx=0;exitDy=0;" edge="1" parent="1" source="uBb9eE13xI9o5E1Ve7ly-23" target="uBb9eE13xI9o5E1Ve7ly-35">
          <mxGeometry width="160" relative="1" as="geometry">
            <mxPoint x="440" y="782" as="sourcePoint" />
            <mxPoint x="540" y="827" as="targetPoint" />
          </mxGeometry>
        </mxCell>
        <mxCell id="uBb9eE13xI9o5E1Ve7ly-43" value="" style="endArrow=open;startArrow=circlePlus;endFill=0;startFill=0;endSize=8;html=1;rounded=0;entryX=0.5;entryY=0;entryDx=0;entryDy=0;exitX=0.5;exitY=1;exitDx=0;exitDy=0;" edge="1" parent="1" source="uBb9eE13xI9o5E1Ve7ly-24" target="uBb9eE13xI9o5E1Ve7ly-35">
          <mxGeometry width="160" relative="1" as="geometry">
            <mxPoint x="580" y="550" as="sourcePoint" />
            <mxPoint x="705" y="595" as="targetPoint" />
          </mxGeometry>
        </mxCell>
        <mxCell id="uBb9eE13xI9o5E1Ve7ly-44" value="&lt;p style=&quot;text-align: center; margin: 4px 0px 0px;&quot;&gt;&quot;requirement&quot;&lt;b&gt;&lt;br&gt;&lt;/b&gt;&lt;/p&gt;&lt;p style=&quot;text-align: center; margin: 4px 0px 0px;&quot;&gt;&lt;b&gt;Forme du flux d&#39;air&lt;/b&gt;&lt;br&gt;&lt;/p&gt;&lt;hr&gt;&lt;p style=&quot;margin:0px;margin-left:8px;&quot;&gt;Id = &quot;1.2.3&quot;&lt;/p&gt;&lt;p style=&quot;margin:0px;margin-left:8px;&quot;&gt;Text = &quot;L&#39;aspirateur doit avoir une forme de flux d&#39;air permettant de se placer sur des surfaces murales, et non planes.&lt;/p&gt;&lt;p style=&quot;margin:0px;margin-left:8px;&quot;&gt;Avoir un flux d&#39;air sous forme de rectangle de dimension 4x1cm.&quot;&lt;/p&gt;" style="verticalAlign=top;align=left;overflow=fill;fontSize=12;fontFamily=Helvetica;html=1;whiteSpace=wrap;" vertex="1" parent="1">
          <mxGeometry x="-760" y="730" width="250" height="140" as="geometry" />
        </mxCell>
        <mxCell id="uBb9eE13xI9o5E1Ve7ly-45" value="" style="endArrow=open;startArrow=circlePlus;endFill=0;startFill=0;endSize=8;html=1;rounded=0;entryX=0.5;entryY=0;entryDx=0;entryDy=0;exitX=0.464;exitY=0.997;exitDx=0;exitDy=0;exitPerimeter=0;" edge="1" parent="1" source="uBb9eE13xI9o5E1Ve7ly-9" target="uBb9eE13xI9o5E1Ve7ly-44">
          <mxGeometry width="160" relative="1" as="geometry">
            <mxPoint x="-315" y="710" as="sourcePoint" />
            <mxPoint x="-350" y="740" as="targetPoint" />
          </mxGeometry>
        </mxCell>
        <mxCell id="uBb9eE13xI9o5E1Ve7ly-46" value="&lt;p style=&quot;text-align: center; margin: 4px 0px 0px;&quot;&gt;&quot;requirement&quot;&lt;b&gt;&lt;br&gt;&lt;/b&gt;&lt;/p&gt;&lt;p style=&quot;text-align: center; margin: 4px 0px 0px;&quot;&gt;&lt;b&gt;Pochette externe retirable&lt;/b&gt;&lt;/p&gt;&lt;hr&gt;&lt;p style=&quot;margin:0px;margin-left:8px;&quot;&gt;Id = &quot;1.2&quot;&lt;/p&gt;&lt;p style=&quot;margin:0px;margin-left:8px;&quot;&gt;Text = &quot;Le filtre doit être inséré dans une forme plastique de dimension 20x15cm externe au réservoir amovible permettant d&#39;être retiré indépendamment.&quot;&lt;/p&gt;" style="verticalAlign=top;align=left;overflow=fill;fontSize=12;fontFamily=Helvetica;html=1;whiteSpace=wrap;" vertex="1" parent="1">
          <mxGeometry x="749" y="545" width="190" height="185" as="geometry" />
        </mxCell>
        <mxCell id="uBb9eE13xI9o5E1Ve7ly-48" value="" style="endArrow=open;startArrow=circlePlus;endFill=0;startFill=0;endSize=8;html=1;rounded=0;entryX=0.5;entryY=0;entryDx=0;entryDy=0;" edge="1" parent="1" target="uBb9eE13xI9o5E1Ve7ly-46">
          <mxGeometry width="160" relative="1" as="geometry">
            <mxPoint x="720" y="500" as="sourcePoint" />
            <mxPoint x="475" y="555" as="targetPoint" />
          </mxGeometry>
        </mxCell>
        <mxCell id="uBb9eE13xI9o5E1Ve7ly-49" value="&lt;p style=&quot;text-align: center; margin: 4px 0px 0px;&quot;&gt;&quot;requirement&quot;&lt;b&gt;&lt;br&gt;&lt;/b&gt;&lt;/p&gt;&lt;p style=&quot;text-align: center; margin: 4px 0px 0px;&quot;&gt;&lt;b&gt;Entrée pour recharger la batterie&lt;/b&gt;&lt;/p&gt;&lt;hr&gt;&lt;p style=&quot;margin:0px;margin-left:8px;&quot;&gt;Id = &quot;1.2&quot;&lt;/p&gt;&lt;p style=&quot;margin:0px;margin-left:8px;&quot;&gt;Text = &quot;L&#39;aspirateur doit être équipé d&#39;une entrée femelle de 6V circulaire de 0,5 de diamètre à l&#39;arrière de l&#39;aspirateur, afin de pouvoir être rechargée.&quot;&lt;/p&gt;" style="verticalAlign=top;align=left;overflow=fill;fontSize=12;fontFamily=Helvetica;html=1;whiteSpace=wrap;" vertex="1" parent="1">
          <mxGeometry x="960" y="545" width="190" height="155" as="geometry" />
        </mxCell>
        <mxCell id="uBb9eE13xI9o5E1Ve7ly-50" value="&lt;p style=&quot;text-align: center; margin: 4px 0px 0px;&quot;&gt;&quot;requirement&quot;&lt;b&gt;&lt;br&gt;&lt;/b&gt;&lt;/p&gt;&lt;p style=&quot;text-align: center; margin: 4px 0px 0px;&quot;&gt;&lt;b&gt;Trou supplémentaire&lt;/b&gt;&lt;/p&gt;&lt;hr&gt;&lt;p style=&quot;margin:0px;margin-left:8px;&quot;&gt;Id = &quot;1.2&quot;&lt;/p&gt;&lt;p style=&quot;margin:0px;margin-left:8px;&quot;&gt;Text = &quot;Le filtre doit être inséré dans une forme plastique de dimension 20x15cm externe au réservoir amovible permettant d&#39;être retiré indépendamment.&quot;&lt;/p&gt;" style="verticalAlign=top;align=left;overflow=fill;fontSize=12;fontFamily=Helvetica;html=1;whiteSpace=wrap;" vertex="1" parent="1">
          <mxGeometry x="310" y="545" width="190" height="185" as="geometry" />
        </mxCell>
      </root>
    </mxGraphModel>
  </diagram>
</mxfile>
